<mxfile host="app.diagrams.net" modified="2021-11-03T12:45:41.190Z" agent="5.0 (Windows NT 10.0; Win64; x64) AppleWebKit/537.36 (KHTML, like Gecko) Chrome/95.0.4638.69 Safari/537.36" etag="J8lxy0hupLzR7HPyTEg2" version="15.6.6" type="github">
  <diagram id="mxfQPYBSmjOZ-BZb22uL" name="Page-1">
    <mxGraphModel dx="782" dy="432" grid="1" gridSize="10" guides="1" tooltips="1" connect="1" arrows="1" fold="1" page="1" pageScale="1" pageWidth="850" pageHeight="1100" math="0" shadow="0">
      <root>
        <mxCell id="0" />
        <mxCell id="1" parent="0" />
        <mxCell id="WHDXpfv42RMrWYzYWuOu-1" value="" style="rounded=0;whiteSpace=wrap;html=1;fillColor=none;strokeColor=default;fontColor=default;" vertex="1" parent="1">
          <mxGeometry x="240" y="180" width="490" height="900" as="geometry" />
        </mxCell>
        <mxCell id="WHDXpfv42RMrWYzYWuOu-3" value="" style="rounded=0;whiteSpace=wrap;html=1;fontColor=default;strokeColor=default;fillColor=none;" vertex="1" parent="1">
          <mxGeometry x="355" y="230" width="260" height="420" as="geometry" />
        </mxCell>
        <mxCell id="WHDXpfv42RMrWYzYWuOu-4" value="&lt;font style=&quot;font-size: 8px&quot;&gt;Search for Hosptials&lt;/font&gt;" style="ellipse;whiteSpace=wrap;html=1;fontColor=default;strokeColor=default;fillColor=none;" vertex="1" parent="1">
          <mxGeometry x="365" y="240" width="65" height="50" as="geometry" />
        </mxCell>
        <mxCell id="WHDXpfv42RMrWYzYWuOu-5" value="&lt;font style=&quot;font-size: 8px&quot;&gt;Search For Medical Shops&lt;/font&gt;" style="ellipse;whiteSpace=wrap;html=1;fontColor=default;strokeColor=default;fillColor=none;" vertex="1" parent="1">
          <mxGeometry x="365" y="310" width="65" height="50" as="geometry" />
        </mxCell>
        <mxCell id="WHDXpfv42RMrWYzYWuOu-6" value="&lt;font style=&quot;font-size: 9px&quot;&gt;Search for reports&lt;/font&gt;" style="ellipse;whiteSpace=wrap;html=1;fontColor=default;strokeColor=default;fillColor=none;" vertex="1" parent="1">
          <mxGeometry x="365" y="380" width="65" height="50" as="geometry" />
        </mxCell>
        <mxCell id="WHDXpfv42RMrWYzYWuOu-7" value="&lt;font style=&quot;font-size: 8px&quot;&gt;View Reports&lt;/font&gt;" style="ellipse;whiteSpace=wrap;html=1;fontColor=default;strokeColor=default;fillColor=none;" vertex="1" parent="1">
          <mxGeometry x="365" y="450" width="65" height="50" as="geometry" />
        </mxCell>
        <mxCell id="WHDXpfv42RMrWYzYWuOu-8" value="&lt;font style=&quot;font-size: 8px&quot;&gt;View trends&lt;/font&gt;" style="ellipse;whiteSpace=wrap;html=1;fontColor=default;strokeColor=default;fillColor=none;" vertex="1" parent="1">
          <mxGeometry x="365" y="520" width="65" height="50" as="geometry" />
        </mxCell>
        <mxCell id="WHDXpfv42RMrWYzYWuOu-9" value="&lt;font style=&quot;font-size: 8px&quot;&gt;Emergency Calls&lt;/font&gt;" style="ellipse;whiteSpace=wrap;html=1;fontColor=default;strokeColor=default;fillColor=none;" vertex="1" parent="1">
          <mxGeometry x="365" y="590" width="65" height="50" as="geometry" />
        </mxCell>
        <mxCell id="WHDXpfv42RMrWYzYWuOu-20" value="&lt;font style=&quot;font-size: 8px&quot;&gt;Sugar Reports&lt;/font&gt;" style="ellipse;whiteSpace=wrap;html=1;fontColor=default;strokeColor=default;fillColor=none;" vertex="1" parent="1">
          <mxGeometry x="510" y="340" width="65" height="50" as="geometry" />
        </mxCell>
        <mxCell id="WHDXpfv42RMrWYzYWuOu-21" value="&lt;font style=&quot;font-size: 8px&quot;&gt;BP Reports&lt;/font&gt;" style="ellipse;whiteSpace=wrap;html=1;fontColor=default;strokeColor=default;fillColor=none;" vertex="1" parent="1">
          <mxGeometry x="510" y="420" width="65" height="50" as="geometry" />
        </mxCell>
        <mxCell id="WHDXpfv42RMrWYzYWuOu-34" value="" style="endArrow=classic;html=1;rounded=0;labelBackgroundColor=default;fontSize=11;fontColor=default;strokeColor=default;exitX=1;exitY=0.5;exitDx=0;exitDy=0;entryX=0;entryY=0.5;entryDx=0;entryDy=0;" edge="1" parent="1" source="WHDXpfv42RMrWYzYWuOu-6" target="WHDXpfv42RMrWYzYWuOu-20">
          <mxGeometry width="50" height="50" relative="1" as="geometry">
            <mxPoint x="450" y="420" as="sourcePoint" />
            <mxPoint x="500" y="370" as="targetPoint" />
          </mxGeometry>
        </mxCell>
        <mxCell id="WHDXpfv42RMrWYzYWuOu-35" value="&lt;font style=&quot;font-size: 9px&quot;&gt;&amp;lt;&amp;lt;include&amp;gt;&amp;gt;&lt;/font&gt;" style="text;html=1;strokeColor=none;fillColor=none;align=center;verticalAlign=middle;whiteSpace=wrap;rounded=0;labelBackgroundColor=default;fontSize=11;fontColor=default;rotation=-30;" vertex="1" parent="1">
          <mxGeometry x="437.5" y="370.67" width="50" height="10" as="geometry" />
        </mxCell>
        <mxCell id="WHDXpfv42RMrWYzYWuOu-36" value="" style="endArrow=classic;html=1;rounded=0;labelBackgroundColor=default;fontSize=11;fontColor=default;strokeColor=default;exitX=1;exitY=0.5;exitDx=0;exitDy=0;entryX=0;entryY=0.5;entryDx=0;entryDy=0;" edge="1" parent="1" source="WHDXpfv42RMrWYzYWuOu-6" target="WHDXpfv42RMrWYzYWuOu-21">
          <mxGeometry width="50" height="50" relative="1" as="geometry">
            <mxPoint x="440" y="415" as="sourcePoint" />
            <mxPoint x="520" y="385" as="targetPoint" />
          </mxGeometry>
        </mxCell>
        <mxCell id="WHDXpfv42RMrWYzYWuOu-37" value="&lt;font style=&quot;font-size: 9px&quot;&gt;&amp;lt;&amp;lt;include&amp;gt;&amp;gt;&lt;/font&gt;" style="text;html=1;strokeColor=none;fillColor=none;align=center;verticalAlign=middle;whiteSpace=wrap;rounded=0;labelBackgroundColor=default;fontSize=11;fontColor=default;rotation=30;" vertex="1" parent="1">
          <mxGeometry x="440" y="430" width="50" height="20" as="geometry" />
        </mxCell>
        <mxCell id="WHDXpfv42RMrWYzYWuOu-38" value="&lt;font style=&quot;font-size: 8px&quot;&gt;Sugar Reports&lt;/font&gt;" style="ellipse;whiteSpace=wrap;html=1;fontColor=default;strokeColor=default;fillColor=none;" vertex="1" parent="1">
          <mxGeometry x="510" y="490" width="65" height="50" as="geometry" />
        </mxCell>
        <mxCell id="WHDXpfv42RMrWYzYWuOu-40" value="&lt;font style=&quot;font-size: 8px&quot;&gt;BP Reports&lt;/font&gt;" style="ellipse;whiteSpace=wrap;html=1;fontColor=default;strokeColor=default;fillColor=none;" vertex="1" parent="1">
          <mxGeometry x="510" y="560" width="65" height="50" as="geometry" />
        </mxCell>
        <mxCell id="WHDXpfv42RMrWYzYWuOu-41" value="" style="endArrow=classic;html=1;rounded=0;labelBackgroundColor=default;fontSize=11;fontColor=default;strokeColor=default;exitX=1;exitY=0.5;exitDx=0;exitDy=0;entryX=0.031;entryY=0.307;entryDx=0;entryDy=0;entryPerimeter=0;" edge="1" parent="1" target="WHDXpfv42RMrWYzYWuOu-38">
          <mxGeometry width="50" height="50" relative="1" as="geometry">
            <mxPoint x="430" y="545" as="sourcePoint" />
            <mxPoint x="510" y="505" as="targetPoint" />
          </mxGeometry>
        </mxCell>
        <mxCell id="WHDXpfv42RMrWYzYWuOu-42" value="&lt;font style=&quot;font-size: 9px&quot;&gt;&amp;lt;&amp;lt;include&amp;gt;&amp;gt;&lt;/font&gt;" style="text;html=1;strokeColor=none;fillColor=none;align=center;verticalAlign=middle;whiteSpace=wrap;rounded=0;labelBackgroundColor=default;fontSize=11;fontColor=default;rotation=-30;" vertex="1" parent="1">
          <mxGeometry x="440" y="505" width="50" height="20" as="geometry" />
        </mxCell>
        <mxCell id="WHDXpfv42RMrWYzYWuOu-43" value="" style="endArrow=classic;html=1;rounded=0;labelBackgroundColor=default;fontSize=11;fontColor=default;strokeColor=default;exitX=1;exitY=0.5;exitDx=0;exitDy=0;entryX=0.021;entryY=0.64;entryDx=0;entryDy=0;entryPerimeter=0;" edge="1" parent="1" source="WHDXpfv42RMrWYzYWuOu-8" target="WHDXpfv42RMrWYzYWuOu-40">
          <mxGeometry width="50" height="50" relative="1" as="geometry">
            <mxPoint x="440" y="555" as="sourcePoint" />
            <mxPoint x="522.0150000000001" y="515.35" as="targetPoint" />
          </mxGeometry>
        </mxCell>
        <mxCell id="WHDXpfv42RMrWYzYWuOu-44" value="&lt;font style=&quot;font-size: 9px&quot;&gt;&amp;lt;&amp;lt;include&amp;gt;&amp;gt;&lt;/font&gt;" style="text;html=1;strokeColor=none;fillColor=none;align=center;verticalAlign=middle;whiteSpace=wrap;rounded=0;labelBackgroundColor=default;fontSize=11;fontColor=default;rotation=30;" vertex="1" parent="1">
          <mxGeometry x="440" y="570" width="50" height="20" as="geometry" />
        </mxCell>
        <mxCell id="WHDXpfv42RMrWYzYWuOu-45" value="User&lt;br&gt;" style="shape=umlActor;verticalLabelPosition=bottom;verticalAlign=top;html=1;outlineConnect=0;labelBackgroundColor=default;fontSize=11;fontColor=default;strokeColor=default;fillColor=none;" vertex="1" parent="1">
          <mxGeometry x="150" y="340" width="40" height="90" as="geometry" />
        </mxCell>
        <mxCell id="WHDXpfv42RMrWYzYWuOu-54" value="" style="endArrow=classic;html=1;rounded=0;labelBackgroundColor=default;fontSize=11;fontColor=default;strokeColor=default;exitX=0.5;exitY=0.5;exitDx=0;exitDy=0;exitPerimeter=0;entryX=0.046;entryY=0.64;entryDx=0;entryDy=0;entryPerimeter=0;" edge="1" parent="1" source="WHDXpfv42RMrWYzYWuOu-45" target="WHDXpfv42RMrWYzYWuOu-4">
          <mxGeometry width="50" height="50" relative="1" as="geometry">
            <mxPoint x="180" y="410" as="sourcePoint" />
            <mxPoint x="230" y="360" as="targetPoint" />
          </mxGeometry>
        </mxCell>
        <mxCell id="WHDXpfv42RMrWYzYWuOu-55" value="" style="endArrow=classic;html=1;rounded=0;labelBackgroundColor=default;fontSize=11;fontColor=default;strokeColor=default;exitX=0.5;exitY=0.5;exitDx=0;exitDy=0;exitPerimeter=0;entryX=0;entryY=0.5;entryDx=0;entryDy=0;" edge="1" parent="1" source="WHDXpfv42RMrWYzYWuOu-45" target="WHDXpfv42RMrWYzYWuOu-5">
          <mxGeometry width="50" height="50" relative="1" as="geometry">
            <mxPoint x="180" y="395" as="sourcePoint" />
            <mxPoint x="377.99" y="282" as="targetPoint" />
          </mxGeometry>
        </mxCell>
        <mxCell id="WHDXpfv42RMrWYzYWuOu-56" value="" style="endArrow=classic;html=1;rounded=0;labelBackgroundColor=default;fontSize=11;fontColor=default;strokeColor=default;exitX=0.5;exitY=0.5;exitDx=0;exitDy=0;exitPerimeter=0;entryX=0.005;entryY=0.36;entryDx=0;entryDy=0;entryPerimeter=0;" edge="1" parent="1" source="WHDXpfv42RMrWYzYWuOu-45" target="WHDXpfv42RMrWYzYWuOu-6">
          <mxGeometry width="50" height="50" relative="1" as="geometry">
            <mxPoint x="190" y="405" as="sourcePoint" />
            <mxPoint x="387.99" y="292" as="targetPoint" />
          </mxGeometry>
        </mxCell>
        <mxCell id="WHDXpfv42RMrWYzYWuOu-57" value="" style="endArrow=classic;html=1;rounded=0;labelBackgroundColor=default;fontSize=11;fontColor=default;strokeColor=default;entryX=0;entryY=0.5;entryDx=0;entryDy=0;exitX=0.5;exitY=0.5;exitDx=0;exitDy=0;exitPerimeter=0;" edge="1" parent="1" source="WHDXpfv42RMrWYzYWuOu-45" target="WHDXpfv42RMrWYzYWuOu-7">
          <mxGeometry width="50" height="50" relative="1" as="geometry">
            <mxPoint x="170" y="390" as="sourcePoint" />
            <mxPoint x="397.99" y="302" as="targetPoint" />
          </mxGeometry>
        </mxCell>
        <mxCell id="WHDXpfv42RMrWYzYWuOu-58" value="" style="endArrow=classic;html=1;rounded=0;labelBackgroundColor=default;fontSize=11;fontColor=default;strokeColor=default;exitX=0.5;exitY=0.5;exitDx=0;exitDy=0;exitPerimeter=0;entryX=0;entryY=0.5;entryDx=0;entryDy=0;" edge="1" parent="1" source="WHDXpfv42RMrWYzYWuOu-45" target="WHDXpfv42RMrWYzYWuOu-8">
          <mxGeometry width="50" height="50" relative="1" as="geometry">
            <mxPoint x="210" y="425" as="sourcePoint" />
            <mxPoint x="407.99" y="312" as="targetPoint" />
          </mxGeometry>
        </mxCell>
        <mxCell id="WHDXpfv42RMrWYzYWuOu-59" value="" style="endArrow=classic;html=1;rounded=0;labelBackgroundColor=default;fontSize=11;fontColor=default;strokeColor=default;exitX=0.5;exitY=0.5;exitDx=0;exitDy=0;exitPerimeter=0;entryX=0;entryY=0.5;entryDx=0;entryDy=0;" edge="1" parent="1" source="WHDXpfv42RMrWYzYWuOu-45" target="WHDXpfv42RMrWYzYWuOu-9">
          <mxGeometry width="50" height="50" relative="1" as="geometry">
            <mxPoint x="220" y="435" as="sourcePoint" />
            <mxPoint x="417.99" y="322" as="targetPoint" />
          </mxGeometry>
        </mxCell>
        <mxCell id="WHDXpfv42RMrWYzYWuOu-60" value="&lt;b&gt;&lt;font style=&quot;font-size: 11px&quot;&gt;Chatbot Interface&lt;/font&gt;&lt;/b&gt;" style="text;html=1;strokeColor=none;fillColor=none;align=center;verticalAlign=middle;whiteSpace=wrap;rounded=0;labelBackgroundColor=default;fontSize=9;fontColor=default;" vertex="1" parent="1">
          <mxGeometry x="505" y="230" width="110" height="30" as="geometry" />
        </mxCell>
        <mxCell id="WHDXpfv42RMrWYzYWuOu-61" value="&lt;b&gt;&lt;font style=&quot;font-size: 13px&quot;&gt;HEALTHBOT SYSTEM&lt;/font&gt;&lt;/b&gt;" style="text;html=1;strokeColor=none;fillColor=none;align=center;verticalAlign=middle;whiteSpace=wrap;rounded=0;labelBackgroundColor=default;fontSize=9;fontColor=default;" vertex="1" parent="1">
          <mxGeometry x="392.5" y="190" width="185" height="30" as="geometry" />
        </mxCell>
        <mxCell id="WHDXpfv42RMrWYzYWuOu-62" value="" style="rounded=0;whiteSpace=wrap;html=1;labelBackgroundColor=default;fontSize=11;fontColor=default;strokeColor=default;fillColor=none;" vertex="1" parent="1">
          <mxGeometry x="505" y="230" width="110" height="30" as="geometry" />
        </mxCell>
      </root>
    </mxGraphModel>
  </diagram>
</mxfile>
